<svg width="432" height="324" viewBox="0 0 432 324" fill="none" xmlns="http://www.w3.org/2000/svg">
<path d="M39.543 106.977V196H12.2148V83.9961H37.9902L39.543 106.977ZM35.5059 135.961H27.1211C27.1211 128.163 28.0527 120.986 29.916 114.43C31.8483 107.874 34.6777 102.18 38.4043 97.3496C42.1309 92.4499 46.7201 88.6543 52.1719 85.9629C57.6927 83.2715 64.0762 81.9258 71.3223 81.9258C76.36 81.9258 80.9837 82.6849 85.1934 84.2031C89.403 85.6523 93.026 87.9642 96.0625 91.1387C99.168 94.2441 101.549 98.3158 103.205 103.354C104.861 108.322 105.689 114.292 105.689 121.262V196H78.3613V124.057C78.3613 118.812 77.6022 114.706 76.084 111.738C74.6348 108.771 72.5299 106.701 69.7695 105.527C67.0091 104.285 63.6966 103.664 59.832 103.664C55.5534 103.664 51.8613 104.527 48.7559 106.252C45.7194 107.908 43.2005 110.22 41.1992 113.188C39.2669 116.155 37.8177 119.571 36.8516 123.436C35.9544 127.3 35.5059 131.475 35.5059 135.961ZM103.619 130.889L92.3359 132.959C92.4049 125.92 93.3711 119.329 95.2344 113.188C97.0977 106.977 99.8236 101.559 103.412 96.9355C107.07 92.2428 111.59 88.5853 116.973 85.9629C122.424 83.2715 128.704 81.9258 135.812 81.9258C141.333 81.9258 146.302 82.7194 150.719 84.3066C155.204 85.8249 159.035 88.2747 162.209 91.6562C165.383 94.9688 167.799 99.2819 169.455 104.596C171.18 109.91 172.043 116.396 172.043 124.057V196H144.508V123.953C144.508 118.501 143.749 114.326 142.23 111.428C140.781 108.529 138.676 106.528 135.916 105.424C133.156 104.251 129.912 103.664 126.186 103.664C122.39 103.664 119.077 104.389 116.248 105.838C113.488 107.218 111.141 109.15 109.209 111.635C107.346 114.119 105.931 117.018 104.965 120.33C104.068 123.574 103.619 127.093 103.619 130.889Z" fill="url(#paint0_linear_85_126)"/>
<path d="M306.318 83.9961V103.664H242.139V83.9961H306.318ZM259.322 56.4609H286.754V163.703C286.754 167.016 287.202 169.569 288.1 171.363C288.997 173.158 290.342 174.365 292.137 174.986C293.931 175.607 296.07 175.918 298.555 175.918C300.349 175.918 302.005 175.814 303.523 175.607C305.042 175.4 306.318 175.193 307.354 174.986L307.457 195.482C305.18 196.242 302.592 196.863 299.693 197.346C296.864 197.829 293.655 198.07 290.066 198.07C283.924 198.07 278.542 197.035 273.918 194.965C269.294 192.826 265.706 189.41 263.152 184.717C260.599 179.955 259.322 173.675 259.322 165.877V56.4609Z" fill="url(#paint1_linear_85_126)"/>
<path d="M391.982 169.396V83.9961H419.518V196H393.639L391.982 169.396ZM395.502 146.209L403.99 146.002C403.99 153.524 403.162 160.46 401.506 166.809C399.85 173.158 397.262 178.678 393.742 183.371C390.292 187.995 385.91 191.618 380.596 194.24C375.282 196.794 369.002 198.07 361.756 198.07C356.235 198.07 351.197 197.311 346.643 195.793C342.088 194.206 338.154 191.756 334.842 188.443C331.598 185.062 329.079 180.749 327.285 175.504C325.491 170.19 324.594 163.807 324.594 156.354V83.9961H351.922V156.561C351.922 160.287 352.336 163.393 353.164 165.877C354.061 168.361 355.269 170.397 356.787 171.984C358.374 173.503 360.203 174.607 362.273 175.297C364.413 175.918 366.69 176.229 369.105 176.229C375.73 176.229 380.941 174.917 384.736 172.295C388.601 169.604 391.361 166.015 393.018 161.529C394.674 156.975 395.502 151.868 395.502 146.209Z" fill="#BA0000"/>
<rect x="196" y="95" width="27" height="101" fill="#BA0000"/>
<path d="M209 23C226.68 23 241 37.32 241 55C241 72.68 226.68 87 209 87C191.32 87 177 72.68 177 55C177 37.32 191.32 23 209 23ZM213 39C213 36.8 211.2 35 209 35C206.8 35 205 36.8 205 39C205 41.2 206.8 43 209 43C211.2 43 213 41.2 213 39ZM213 75V51H205V75H213Z" fill="#BA0000"/>
<path d="M15.1035 217.453H20.5723L30.8506 244.87L41.1045 217.453H46.5732L32.999 253H28.6533L15.1035 217.453ZM12.6133 217.453H17.8135L18.7168 241.184V253H12.6133V217.453ZM43.8633 217.453H49.0879V253H42.96V241.184L43.8633 217.453ZM63.4434 250.119L70.6211 226.584H76.9199L66.3242 257.028C66.0801 257.679 65.7627 258.387 65.3721 259.152C64.9814 259.917 64.4688 260.642 63.834 261.325C63.2155 262.025 62.4424 262.587 61.5146 263.01C60.5869 263.449 59.4639 263.669 58.1455 263.669C57.6247 263.669 57.1201 263.62 56.6318 263.522C56.1598 263.441 55.7122 263.352 55.2891 263.254L55.2646 258.762C55.4274 258.778 55.6227 258.794 55.8506 258.811C56.0947 258.827 56.29 258.835 56.4365 258.835C57.4131 258.835 58.2269 258.713 58.8779 258.469C59.529 258.241 60.0579 257.867 60.4648 257.346C60.888 256.825 61.2461 256.125 61.5391 255.246L63.4434 250.119ZM59.3906 226.584L65.665 246.359L66.7148 252.561L62.6377 253.61L53.043 226.584H59.3906ZM99.8691 217.453V253H93.7412V217.453H99.8691ZM112.735 232.224V253H106.852V226.584H112.394L112.735 232.224ZM111.686 238.815L109.781 238.791C109.798 236.919 110.058 235.202 110.562 233.64C111.083 232.077 111.799 230.734 112.711 229.611C113.639 228.488 114.745 227.626 116.031 227.023C117.317 226.405 118.749 226.096 120.328 226.096C121.598 226.096 122.745 226.275 123.771 226.633C124.812 226.975 125.699 227.536 126.432 228.317C127.18 229.099 127.75 230.116 128.141 231.369C128.531 232.606 128.727 234.128 128.727 235.935V253H122.818V235.91C122.818 234.641 122.631 233.64 122.257 232.907C121.899 232.159 121.37 231.63 120.67 231.32C119.986 230.995 119.132 230.832 118.106 230.832C117.097 230.832 116.194 231.044 115.396 231.467C114.599 231.89 113.924 232.468 113.37 233.2C112.833 233.933 112.418 234.779 112.125 235.739C111.832 236.7 111.686 237.725 111.686 238.815ZM142.691 253H136.808V224.045C136.808 222.076 137.174 220.424 137.906 219.089C138.655 217.738 139.721 216.721 141.104 216.037C142.488 215.337 144.124 214.987 146.012 214.987C146.598 214.987 147.175 215.028 147.745 215.109C148.315 215.174 148.868 215.28 149.405 215.427L149.259 219.968C148.933 219.886 148.575 219.829 148.185 219.797C147.81 219.764 147.403 219.748 146.964 219.748C146.069 219.748 145.296 219.919 144.645 220.261C144.01 220.586 143.521 221.066 143.18 221.701C142.854 222.336 142.691 223.117 142.691 224.045V253ZM148.136 226.584V230.881H132.755V226.584H148.136ZM151.285 240.085V239.523C151.285 237.619 151.562 235.853 152.115 234.226C152.669 232.582 153.466 231.158 154.508 229.953C155.566 228.732 156.852 227.788 158.365 227.121C159.895 226.438 161.62 226.096 163.541 226.096C165.478 226.096 167.203 226.438 168.717 227.121C170.247 227.788 171.541 228.732 172.599 229.953C173.657 231.158 174.462 232.582 175.016 234.226C175.569 235.853 175.846 237.619 175.846 239.523V240.085C175.846 241.989 175.569 243.755 175.016 245.383C174.462 247.01 173.657 248.435 172.599 249.655C171.541 250.86 170.255 251.804 168.741 252.487C167.228 253.155 165.51 253.488 163.59 253.488C161.653 253.488 159.92 253.155 158.39 252.487C156.876 251.804 155.59 250.86 154.532 249.655C153.474 248.435 152.669 247.01 152.115 245.383C151.562 243.755 151.285 241.989 151.285 240.085ZM157.169 239.523V240.085C157.169 241.273 157.291 242.396 157.535 243.454C157.779 244.512 158.162 245.44 158.683 246.237C159.203 247.035 159.871 247.661 160.685 248.117C161.498 248.573 162.467 248.801 163.59 248.801C164.68 248.801 165.624 248.573 166.422 248.117C167.236 247.661 167.903 247.035 168.424 246.237C168.945 245.44 169.327 244.512 169.571 243.454C169.832 242.396 169.962 241.273 169.962 240.085V239.523C169.962 238.352 169.832 237.245 169.571 236.203C169.327 235.145 168.937 234.209 168.399 233.396C167.879 232.582 167.211 231.947 166.397 231.491C165.6 231.019 164.648 230.783 163.541 230.783C162.434 230.783 161.474 231.019 160.66 231.491C159.863 231.947 159.203 232.582 158.683 233.396C158.162 234.209 157.779 235.145 157.535 236.203C157.291 237.245 157.169 238.352 157.169 239.523ZM186.686 231.613V253H180.802V226.584H186.417L186.686 231.613ZM194.767 226.413L194.718 231.882C194.36 231.817 193.969 231.768 193.546 231.735C193.139 231.703 192.732 231.687 192.325 231.687C191.316 231.687 190.429 231.833 189.664 232.126C188.899 232.403 188.256 232.81 187.735 233.347C187.231 233.868 186.84 234.502 186.563 235.251C186.287 236 186.124 236.838 186.075 237.766L184.732 237.863C184.732 236.203 184.895 234.665 185.221 233.249C185.546 231.833 186.035 230.588 186.686 229.514C187.353 228.439 188.183 227.601 189.176 226.999C190.185 226.397 191.349 226.096 192.667 226.096C193.025 226.096 193.408 226.128 193.814 226.193C194.238 226.258 194.555 226.332 194.767 226.413ZM204.337 231.955V253H198.453V226.584H203.995L204.337 231.955ZM203.385 238.815L201.383 238.791C201.383 236.968 201.611 235.284 202.066 233.737C202.522 232.191 203.189 230.848 204.068 229.709C204.947 228.553 206.038 227.666 207.34 227.048C208.658 226.413 210.18 226.096 211.905 226.096C213.11 226.096 214.208 226.275 215.201 226.633C216.21 226.975 217.081 227.52 217.813 228.269C218.562 229.017 219.132 229.978 219.522 231.149C219.929 232.321 220.133 233.737 220.133 235.397V253H214.249V235.91C214.249 234.624 214.054 233.615 213.663 232.883C213.289 232.15 212.743 231.63 212.027 231.32C211.327 230.995 210.489 230.832 209.513 230.832C208.406 230.832 207.462 231.044 206.681 231.467C205.916 231.89 205.289 232.468 204.801 233.2C204.312 233.933 203.954 234.779 203.727 235.739C203.499 236.7 203.385 237.725 203.385 238.815ZM219.767 237.253L217.008 237.863C217.008 236.268 217.228 234.763 217.667 233.347C218.123 231.914 218.782 230.661 219.645 229.587C220.523 228.496 221.606 227.642 222.892 227.023C224.177 226.405 225.65 226.096 227.311 226.096C228.661 226.096 229.866 226.283 230.924 226.657C231.998 227.015 232.91 227.585 233.658 228.366C234.407 229.147 234.977 230.165 235.367 231.418C235.758 232.655 235.953 234.152 235.953 235.91V253H230.045V235.886C230.045 234.551 229.85 233.518 229.459 232.785C229.085 232.053 228.548 231.548 227.848 231.271C227.148 230.979 226.31 230.832 225.333 230.832C224.422 230.832 223.616 231.003 222.916 231.345C222.232 231.67 221.655 232.134 221.183 232.736C220.711 233.322 220.353 233.998 220.108 234.763C219.881 235.528 219.767 236.358 219.767 237.253ZM256.9 247.702V235.104C256.9 234.16 256.729 233.347 256.388 232.663C256.046 231.979 255.525 231.451 254.825 231.076C254.142 230.702 253.279 230.515 252.237 230.515C251.277 230.515 250.447 230.677 249.747 231.003C249.047 231.328 248.502 231.768 248.111 232.321C247.721 232.875 247.525 233.501 247.525 234.201H241.666C241.666 233.16 241.918 232.15 242.423 231.174C242.927 230.197 243.66 229.326 244.62 228.562C245.58 227.797 246.728 227.194 248.062 226.755C249.397 226.315 250.895 226.096 252.555 226.096C254.54 226.096 256.298 226.429 257.828 227.097C259.374 227.764 260.587 228.773 261.466 230.124C262.361 231.459 262.809 233.135 262.809 235.153V246.896C262.809 248.101 262.89 249.183 263.053 250.144C263.232 251.088 263.484 251.91 263.81 252.609V253H257.779C257.503 252.365 257.283 251.56 257.12 250.583C256.974 249.59 256.9 248.63 256.9 247.702ZM257.755 236.936L257.804 240.573H253.58C252.49 240.573 251.529 240.679 250.699 240.891C249.869 241.086 249.177 241.379 248.624 241.77C248.071 242.16 247.656 242.632 247.379 243.186C247.102 243.739 246.964 244.366 246.964 245.065C246.964 245.765 247.127 246.408 247.452 246.994C247.778 247.564 248.25 248.011 248.868 248.337C249.503 248.662 250.268 248.825 251.163 248.825C252.368 248.825 253.417 248.581 254.312 248.093C255.224 247.588 255.94 246.978 256.461 246.262C256.982 245.529 257.258 244.838 257.291 244.187L259.195 246.799C259 247.466 258.666 248.182 258.194 248.947C257.722 249.712 257.104 250.445 256.339 251.145C255.59 251.828 254.687 252.39 253.629 252.829C252.587 253.269 251.383 253.488 250.016 253.488C248.29 253.488 246.752 253.146 245.401 252.463C244.05 251.763 242.993 250.827 242.228 249.655C241.463 248.467 241.08 247.124 241.08 245.627C241.08 244.227 241.34 242.99 241.861 241.916C242.398 240.826 243.18 239.914 244.205 239.182C245.247 238.449 246.516 237.896 248.014 237.521C249.511 237.131 251.22 236.936 253.141 236.936H257.755ZM281.07 226.584V230.881H266.178V226.584H281.07ZM270.475 220.114H276.358V245.7C276.358 246.514 276.472 247.141 276.7 247.58C276.944 248.003 277.278 248.288 277.701 248.435C278.124 248.581 278.621 248.654 279.19 248.654C279.597 248.654 279.988 248.63 280.362 248.581C280.737 248.532 281.038 248.483 281.266 248.435L281.29 252.927C280.802 253.073 280.232 253.203 279.581 253.317C278.946 253.431 278.214 253.488 277.384 253.488C276.033 253.488 274.837 253.252 273.795 252.78C272.753 252.292 271.939 251.503 271.354 250.412C270.768 249.322 270.475 247.873 270.475 246.066V220.114ZM291.91 226.584V253H286.002V226.584H291.91ZM285.611 219.65C285.611 218.755 285.904 218.015 286.49 217.429C287.092 216.826 287.923 216.525 288.98 216.525C290.022 216.525 290.844 216.826 291.446 217.429C292.049 218.015 292.35 218.755 292.35 219.65C292.35 220.529 292.049 221.262 291.446 221.848C290.844 222.434 290.022 222.727 288.98 222.727C287.923 222.727 287.092 222.434 286.49 221.848C285.904 221.262 285.611 220.529 285.611 219.65ZM297.232 240.085V239.523C297.232 237.619 297.509 235.853 298.062 234.226C298.616 232.582 299.413 231.158 300.455 229.953C301.513 228.732 302.799 227.788 304.312 227.121C305.842 226.438 307.568 226.096 309.488 226.096C311.425 226.096 313.15 226.438 314.664 227.121C316.194 227.788 317.488 228.732 318.546 229.953C319.604 231.158 320.41 232.582 320.963 234.226C321.516 235.853 321.793 237.619 321.793 239.523V240.085C321.793 241.989 321.516 243.755 320.963 245.383C320.41 247.01 319.604 248.435 318.546 249.655C317.488 250.86 316.202 251.804 314.688 252.487C313.175 253.155 311.458 253.488 309.537 253.488C307.6 253.488 305.867 253.155 304.337 252.487C302.823 251.804 301.537 250.86 300.479 249.655C299.422 248.435 298.616 247.01 298.062 245.383C297.509 243.755 297.232 241.989 297.232 240.085ZM303.116 239.523V240.085C303.116 241.273 303.238 242.396 303.482 243.454C303.727 244.512 304.109 245.44 304.63 246.237C305.151 247.035 305.818 247.661 306.632 248.117C307.446 248.573 308.414 248.801 309.537 248.801C310.628 248.801 311.572 248.573 312.369 248.117C313.183 247.661 313.85 247.035 314.371 246.237C314.892 245.44 315.274 244.512 315.519 243.454C315.779 242.396 315.909 241.273 315.909 240.085V239.523C315.909 238.352 315.779 237.245 315.519 236.203C315.274 235.145 314.884 234.209 314.347 233.396C313.826 232.582 313.159 231.947 312.345 231.491C311.547 231.019 310.595 230.783 309.488 230.783C308.382 230.783 307.421 231.019 306.607 231.491C305.81 231.947 305.151 232.582 304.63 233.396C304.109 234.209 303.727 235.145 303.482 236.203C303.238 237.245 303.116 238.352 303.116 239.523ZM332.56 232.224V253H326.676V226.584H332.218L332.56 232.224ZM331.51 238.815L329.605 238.791C329.622 236.919 329.882 235.202 330.387 233.64C330.908 232.077 331.624 230.734 332.535 229.611C333.463 228.488 334.57 227.626 335.855 227.023C337.141 226.405 338.574 226.096 340.152 226.096C341.422 226.096 342.569 226.275 343.595 226.633C344.636 226.975 345.523 227.536 346.256 228.317C347.005 229.099 347.574 230.116 347.965 231.369C348.355 232.606 348.551 234.128 348.551 235.935V253H342.643V235.91C342.643 234.641 342.455 233.64 342.081 232.907C341.723 232.159 341.194 231.63 340.494 231.32C339.811 230.995 338.956 230.832 337.931 230.832C336.922 230.832 336.018 231.044 335.221 231.467C334.423 231.89 333.748 232.468 333.194 233.2C332.657 233.933 332.242 234.779 331.949 235.739C331.656 236.7 331.51 237.725 331.51 238.815ZM27.2373 276.453V312H21.1582V276.453H27.2373ZM38.3945 276.453V281.336H10.0986V276.453H38.3945ZM51.7979 312.488C49.8447 312.488 48.0788 312.171 46.5 311.536C44.9375 310.885 43.6029 309.982 42.4961 308.826C41.4056 307.671 40.5674 306.312 39.9814 304.749C39.3955 303.187 39.1025 301.502 39.1025 299.695V298.719C39.1025 296.652 39.4036 294.78 40.0059 293.104C40.6081 291.427 41.4463 289.995 42.5205 288.807C43.5947 287.602 44.8643 286.683 46.3291 286.048C47.7939 285.413 49.3809 285.096 51.0898 285.096C52.9779 285.096 54.6299 285.413 56.0459 286.048C57.4619 286.683 58.6338 287.578 59.5615 288.733C60.5055 289.873 61.2054 291.232 61.6611 292.811C62.1331 294.389 62.3691 296.131 62.3691 298.035V300.55H41.959V296.326H56.5586V295.862C56.526 294.804 56.3145 293.812 55.9238 292.884C55.5495 291.956 54.9717 291.207 54.1904 290.638C53.4092 290.068 52.3675 289.783 51.0654 289.783C50.0889 289.783 49.2181 289.995 48.4531 290.418C47.7044 290.825 47.0778 291.419 46.5732 292.2C46.0687 292.981 45.6781 293.925 45.4014 295.032C45.141 296.123 45.0107 297.352 45.0107 298.719V299.695C45.0107 300.851 45.1654 301.925 45.4746 302.918C45.8001 303.895 46.2721 304.749 46.8906 305.481C47.5091 306.214 48.2578 306.792 49.1367 307.215C50.0156 307.622 51.0166 307.825 52.1396 307.825C53.5557 307.825 54.8171 307.54 55.9238 306.971C57.0306 306.401 57.9909 305.595 58.8047 304.554L61.9053 307.557C61.3356 308.387 60.5951 309.184 59.6836 309.949C58.7721 310.698 57.6572 311.308 56.3389 311.78C55.0368 312.252 53.5231 312.488 51.7979 312.488ZM73.2578 274.5V312H67.3496V274.5H73.2578ZM85.6357 274.5V312H79.7275V274.5H85.6357ZM102.042 285.584L90.543 298.328L84.2441 304.773L82.7061 299.793L87.4668 293.909L94.9375 285.584H102.042ZM96.207 312L87.6377 299.598L91.3486 295.472L103.019 312H96.207ZM104.654 299.085V298.523C104.654 296.619 104.931 294.853 105.484 293.226C106.038 291.582 106.835 290.158 107.877 288.953C108.935 287.732 110.221 286.788 111.734 286.121C113.264 285.438 114.99 285.096 116.91 285.096C118.847 285.096 120.572 285.438 122.086 286.121C123.616 286.788 124.91 287.732 125.968 288.953C127.026 290.158 127.831 291.582 128.385 293.226C128.938 294.853 129.215 296.619 129.215 298.523V299.085C129.215 300.989 128.938 302.755 128.385 304.383C127.831 306.01 127.026 307.435 125.968 308.655C124.91 309.86 123.624 310.804 122.11 311.487C120.597 312.155 118.88 312.488 116.959 312.488C115.022 312.488 113.289 312.155 111.759 311.487C110.245 310.804 108.959 309.86 107.901 308.655C106.843 307.435 106.038 306.01 105.484 304.383C104.931 302.755 104.654 300.989 104.654 299.085ZM110.538 298.523V299.085C110.538 300.273 110.66 301.396 110.904 302.454C111.148 303.512 111.531 304.44 112.052 305.237C112.573 306.035 113.24 306.661 114.054 307.117C114.868 307.573 115.836 307.801 116.959 307.801C118.049 307.801 118.993 307.573 119.791 307.117C120.605 306.661 121.272 306.035 121.793 305.237C122.314 304.44 122.696 303.512 122.94 302.454C123.201 301.396 123.331 300.273 123.331 299.085V298.523C123.331 297.352 123.201 296.245 122.94 295.203C122.696 294.145 122.306 293.209 121.769 292.396C121.248 291.582 120.58 290.947 119.767 290.491C118.969 290.019 118.017 289.783 116.91 289.783C115.803 289.783 114.843 290.019 114.029 290.491C113.232 290.947 112.573 291.582 112.052 292.396C111.531 293.209 111.148 294.145 110.904 295.203C110.66 296.245 110.538 297.352 110.538 298.523ZM140.03 290.955V312H134.146V285.584H139.688L140.03 290.955ZM139.078 297.815L137.076 297.791C137.076 295.968 137.304 294.284 137.76 292.737C138.215 291.191 138.883 289.848 139.762 288.709C140.641 287.553 141.731 286.666 143.033 286.048C144.352 285.413 145.873 285.096 147.599 285.096C148.803 285.096 149.902 285.275 150.895 285.633C151.904 285.975 152.774 286.52 153.507 287.269C154.256 288.017 154.825 288.978 155.216 290.149C155.623 291.321 155.826 292.737 155.826 294.397V312H149.942V294.91C149.942 293.624 149.747 292.615 149.356 291.883C148.982 291.15 148.437 290.63 147.721 290.32C147.021 289.995 146.183 289.832 145.206 289.832C144.099 289.832 143.155 290.044 142.374 290.467C141.609 290.89 140.982 291.468 140.494 292.2C140.006 292.933 139.648 293.779 139.42 294.739C139.192 295.7 139.078 296.725 139.078 297.815ZM155.46 296.253L152.701 296.863C152.701 295.268 152.921 293.763 153.36 292.347C153.816 290.914 154.475 289.661 155.338 288.587C156.217 287.496 157.299 286.642 158.585 286.023C159.871 285.405 161.344 285.096 163.004 285.096C164.355 285.096 165.559 285.283 166.617 285.657C167.691 286.015 168.603 286.585 169.352 287.366C170.1 288.147 170.67 289.165 171.061 290.418C171.451 291.655 171.646 293.152 171.646 294.91V312H165.738V294.886C165.738 293.551 165.543 292.518 165.152 291.785C164.778 291.053 164.241 290.548 163.541 290.271C162.841 289.979 162.003 289.832 161.026 289.832C160.115 289.832 159.309 290.003 158.609 290.345C157.926 290.67 157.348 291.134 156.876 291.736C156.404 292.322 156.046 292.998 155.802 293.763C155.574 294.528 155.46 295.358 155.46 296.253ZM210.685 276.453H216.788V300.208C216.788 302.91 216.202 305.172 215.03 306.995C213.858 308.818 212.263 310.193 210.245 311.121C208.243 312.033 206.005 312.488 203.531 312.488C200.976 312.488 198.697 312.033 196.695 311.121C194.693 310.193 193.115 308.818 191.959 306.995C190.82 305.172 190.25 302.91 190.25 300.208V276.453H196.354V300.208C196.354 301.917 196.646 303.325 197.232 304.432C197.818 305.522 198.648 306.328 199.723 306.849C200.797 307.369 202.066 307.63 203.531 307.63C204.996 307.63 206.257 307.369 207.315 306.849C208.39 306.328 209.22 305.522 209.806 304.432C210.392 303.325 210.685 301.917 210.685 300.208V276.453ZM228.702 291.224V312H222.818V285.584H228.36L228.702 291.224ZM227.652 297.815L225.748 297.791C225.764 295.919 226.025 294.202 226.529 292.64C227.05 291.077 227.766 289.734 228.678 288.611C229.605 287.488 230.712 286.626 231.998 286.023C233.284 285.405 234.716 285.096 236.295 285.096C237.564 285.096 238.712 285.275 239.737 285.633C240.779 285.975 241.666 286.536 242.398 287.317C243.147 288.099 243.717 289.116 244.107 290.369C244.498 291.606 244.693 293.128 244.693 294.935V312H238.785V294.91C238.785 293.641 238.598 292.64 238.224 291.907C237.866 291.159 237.337 290.63 236.637 290.32C235.953 289.995 235.099 289.832 234.073 289.832C233.064 289.832 232.161 290.044 231.363 290.467C230.566 290.89 229.89 291.468 229.337 292.2C228.8 292.933 228.385 293.779 228.092 294.739C227.799 295.7 227.652 296.725 227.652 297.815ZM256.998 285.584V312H251.09V285.584H256.998ZM250.699 278.65C250.699 277.755 250.992 277.015 251.578 276.429C252.18 275.826 253.01 275.525 254.068 275.525C255.11 275.525 255.932 275.826 256.534 276.429C257.136 277.015 257.438 277.755 257.438 278.65C257.438 279.529 257.136 280.262 256.534 280.848C255.932 281.434 255.11 281.727 254.068 281.727C253.01 281.727 252.18 281.434 251.578 280.848C250.992 280.262 250.699 279.529 250.699 278.65ZM272.037 307.337L278.507 285.584H284.61L275.431 312H271.622L272.037 307.337ZM267.081 285.584L273.673 307.435L273.99 312H270.182L260.953 285.584H267.081ZM299.552 312.488C297.599 312.488 295.833 312.171 294.254 311.536C292.691 310.885 291.357 309.982 290.25 308.826C289.16 307.671 288.321 306.312 287.735 304.749C287.149 303.187 286.856 301.502 286.856 299.695V298.719C286.856 296.652 287.158 294.78 287.76 293.104C288.362 291.427 289.2 289.995 290.274 288.807C291.349 287.602 292.618 286.683 294.083 286.048C295.548 285.413 297.135 285.096 298.844 285.096C300.732 285.096 302.384 285.413 303.8 286.048C305.216 286.683 306.388 287.578 307.315 288.733C308.259 289.873 308.959 291.232 309.415 292.811C309.887 294.389 310.123 296.131 310.123 298.035V300.55H289.713V296.326H304.312V295.862C304.28 294.804 304.068 293.812 303.678 292.884C303.303 291.956 302.726 291.207 301.944 290.638C301.163 290.068 300.121 289.783 298.819 289.783C297.843 289.783 296.972 289.995 296.207 290.418C295.458 290.825 294.832 291.419 294.327 292.2C293.823 292.981 293.432 293.925 293.155 295.032C292.895 296.123 292.765 297.352 292.765 298.719V299.695C292.765 300.851 292.919 301.925 293.229 302.918C293.554 303.895 294.026 304.749 294.645 305.481C295.263 306.214 296.012 306.792 296.891 307.215C297.77 307.622 298.771 307.825 299.894 307.825C301.31 307.825 302.571 307.54 303.678 306.971C304.785 306.401 305.745 305.595 306.559 304.554L309.659 307.557C309.09 308.387 308.349 309.184 307.438 309.949C306.526 310.698 305.411 311.308 304.093 311.78C302.791 312.252 301.277 312.488 299.552 312.488ZM320.621 290.613V312H314.737V285.584H320.353L320.621 290.613ZM328.702 285.413L328.653 290.882C328.295 290.817 327.905 290.768 327.481 290.735C327.075 290.703 326.668 290.687 326.261 290.687C325.252 290.687 324.365 290.833 323.6 291.126C322.835 291.403 322.192 291.81 321.671 292.347C321.166 292.868 320.776 293.502 320.499 294.251C320.222 295 320.06 295.838 320.011 296.766L318.668 296.863C318.668 295.203 318.831 293.665 319.156 292.249C319.482 290.833 319.97 289.588 320.621 288.514C321.288 287.439 322.118 286.601 323.111 285.999C324.12 285.397 325.284 285.096 326.603 285.096C326.961 285.096 327.343 285.128 327.75 285.193C328.173 285.258 328.491 285.332 328.702 285.413ZM347.208 304.847C347.208 304.261 347.062 303.732 346.769 303.26C346.476 302.771 345.914 302.332 345.084 301.941C344.27 301.551 343.066 301.193 341.471 300.867C340.071 300.558 338.785 300.192 337.613 299.769C336.458 299.329 335.465 298.8 334.635 298.182C333.805 297.563 333.162 296.831 332.706 295.984C332.25 295.138 332.022 294.161 332.022 293.055C332.022 291.98 332.258 290.963 332.73 290.003C333.202 289.043 333.878 288.196 334.757 287.464C335.636 286.731 336.702 286.154 337.955 285.73C339.225 285.307 340.641 285.096 342.203 285.096C344.417 285.096 346.313 285.47 347.892 286.219C349.487 286.951 350.707 287.952 351.554 289.222C352.4 290.475 352.823 291.891 352.823 293.47H346.939C346.939 292.77 346.76 292.119 346.402 291.517C346.061 290.898 345.54 290.402 344.84 290.027C344.14 289.637 343.261 289.441 342.203 289.441C341.194 289.441 340.356 289.604 339.688 289.93C339.037 290.239 338.549 290.646 338.224 291.15C337.914 291.655 337.76 292.208 337.76 292.811C337.76 293.25 337.841 293.649 338.004 294.007C338.183 294.349 338.476 294.666 338.883 294.959C339.29 295.236 339.843 295.496 340.543 295.74C341.259 295.984 342.154 296.22 343.229 296.448C345.247 296.871 346.98 297.417 348.429 298.084C349.894 298.735 351.017 299.581 351.798 300.623C352.579 301.648 352.97 302.951 352.97 304.529C352.97 305.701 352.717 306.775 352.213 307.752C351.725 308.712 351.008 309.55 350.064 310.267C349.12 310.966 347.989 311.512 346.671 311.902C345.369 312.293 343.904 312.488 342.276 312.488C339.884 312.488 337.857 312.065 336.197 311.219C334.537 310.356 333.276 309.257 332.413 307.923C331.567 306.572 331.144 305.172 331.144 303.724H336.832C336.897 304.814 337.198 305.685 337.735 306.336C338.289 306.971 338.972 307.435 339.786 307.728C340.616 308.004 341.471 308.143 342.35 308.143C343.408 308.143 344.295 308.004 345.011 307.728C345.727 307.435 346.272 307.044 346.646 306.556C347.021 306.051 347.208 305.481 347.208 304.847ZM364.42 285.584V312H358.512V285.584H364.42ZM358.121 278.65C358.121 277.755 358.414 277.015 359 276.429C359.602 275.826 360.432 275.525 361.49 275.525C362.532 275.525 363.354 275.826 363.956 276.429C364.558 277.015 364.859 277.755 364.859 278.65C364.859 279.529 364.558 280.262 363.956 280.848C363.354 281.434 362.532 281.727 361.49 281.727C360.432 281.727 359.602 281.434 359 280.848C358.414 280.262 358.121 279.529 358.121 278.65ZM382.975 285.584V289.881H368.082V285.584H382.975ZM372.379 279.114H378.263V304.7C378.263 305.514 378.377 306.141 378.604 306.58C378.849 307.003 379.182 307.288 379.605 307.435C380.029 307.581 380.525 307.654 381.095 307.654C381.502 307.654 381.892 307.63 382.267 307.581C382.641 307.532 382.942 307.483 383.17 307.435L383.194 311.927C382.706 312.073 382.136 312.203 381.485 312.317C380.851 312.431 380.118 312.488 379.288 312.488C377.937 312.488 376.741 312.252 375.699 311.78C374.658 311.292 373.844 310.503 373.258 309.412C372.672 308.322 372.379 306.873 372.379 305.066V279.114ZM395.182 309.119L402.359 285.584H408.658L398.062 316.028C397.818 316.679 397.501 317.387 397.11 318.152C396.72 318.917 396.207 319.642 395.572 320.325C394.954 321.025 394.181 321.587 393.253 322.01C392.325 322.449 391.202 322.669 389.884 322.669C389.363 322.669 388.858 322.62 388.37 322.522C387.898 322.441 387.451 322.352 387.027 322.254L387.003 317.762C387.166 317.778 387.361 317.794 387.589 317.811C387.833 317.827 388.028 317.835 388.175 317.835C389.151 317.835 389.965 317.713 390.616 317.469C391.267 317.241 391.796 316.867 392.203 316.346C392.626 315.825 392.984 315.125 393.277 314.246L395.182 309.119ZM391.129 285.584L397.403 305.359L398.453 311.561L394.376 312.61L384.781 285.584H391.129Z" fill="black"/>
<defs>
<linearGradient id="paint0_linear_85_126" x1="211" y1="124" x2="4.83405e-06" y2="124" gradientUnits="userSpaceOnUse">
<stop offset="0.5" stop-color="#BA0000"/>
<stop offset="0.5" stop-color="#540000" stop-opacity="0.9"/>
</linearGradient>
<linearGradient id="paint1_linear_85_126" x1="241" y1="124" x2="313" y2="124" gradientUnits="userSpaceOnUse">
<stop stop-color="#BA0000"/>
</linearGradient>
</defs>
</svg>
