<svg width="432" height="248" viewBox="0 0 432 248" fill="none" xmlns="http://www.w3.org/2000/svg">
<path d="M39.543 106.977V196H12.2148V83.9961H37.9902L39.543 106.977ZM35.5059 135.961H27.1211C27.1211 128.163 28.0527 120.986 29.916 114.43C31.8483 107.874 34.6777 102.18 38.4043 97.3496C42.1309 92.4499 46.7201 88.6543 52.1719 85.9629C57.6927 83.2715 64.0762 81.9258 71.3223 81.9258C76.36 81.9258 80.9837 82.6849 85.1934 84.2031C89.403 85.6523 93.026 87.9642 96.0625 91.1387C99.168 94.2441 101.549 98.3158 103.205 103.354C104.861 108.322 105.689 114.292 105.689 121.262V196H78.3613V124.057C78.3613 118.812 77.6022 114.706 76.084 111.738C74.6348 108.771 72.5299 106.701 69.7695 105.527C67.0091 104.285 63.6966 103.664 59.832 103.664C55.5534 103.664 51.8613 104.527 48.7559 106.252C45.7194 107.908 43.2005 110.22 41.1992 113.188C39.2669 116.155 37.8177 119.571 36.8516 123.436C35.9544 127.3 35.5059 131.475 35.5059 135.961ZM103.619 130.889L92.3359 132.959C92.4049 125.92 93.3711 119.329 95.2344 113.188C97.0977 106.977 99.8236 101.559 103.412 96.9355C107.07 92.2428 111.59 88.5853 116.973 85.9629C122.424 83.2715 128.704 81.9258 135.812 81.9258C141.333 81.9258 146.302 82.7194 150.719 84.3066C155.204 85.8249 159.035 88.2747 162.209 91.6562C165.383 94.9688 167.799 99.2819 169.455 104.596C171.18 109.91 172.043 116.396 172.043 124.057V196H144.508V123.953C144.508 118.501 143.749 114.326 142.23 111.428C140.781 108.529 138.676 106.528 135.916 105.424C133.156 104.251 129.912 103.664 126.186 103.664C122.39 103.664 119.077 104.389 116.248 105.838C113.488 107.218 111.141 109.15 109.209 111.635C107.346 114.119 105.931 117.018 104.965 120.33C104.068 123.574 103.619 127.093 103.619 130.889Z" fill="url(#paint0_linear_85_128)"/>
<path d="M306.318 83.9961V103.664H242.139V83.9961H306.318ZM259.322 56.4609H286.754V163.703C286.754 167.016 287.202 169.569 288.1 171.363C288.997 173.158 290.342 174.365 292.137 174.986C293.931 175.607 296.07 175.918 298.555 175.918C300.349 175.918 302.005 175.814 303.523 175.607C305.042 175.4 306.318 175.193 307.354 174.986L307.457 195.482C305.18 196.242 302.592 196.863 299.693 197.346C296.864 197.829 293.655 198.07 290.066 198.07C283.924 198.07 278.542 197.035 273.918 194.965C269.294 192.826 265.706 189.41 263.152 184.717C260.599 179.955 259.322 173.675 259.322 165.877V56.4609Z" fill="url(#paint1_linear_85_128)"/>
<path d="M391.982 169.396V83.9961H419.518V196H393.639L391.982 169.396ZM395.502 146.209L403.99 146.002C403.99 153.524 403.162 160.46 401.506 166.809C399.85 173.158 397.262 178.678 393.742 183.371C390.292 187.995 385.91 191.618 380.596 194.24C375.282 196.794 369.002 198.07 361.756 198.07C356.235 198.07 351.197 197.311 346.643 195.793C342.088 194.206 338.154 191.756 334.842 188.443C331.598 185.062 329.079 180.749 327.285 175.504C325.491 170.19 324.594 163.807 324.594 156.354V83.9961H351.922V156.561C351.922 160.287 352.336 163.393 353.164 165.877C354.061 168.361 355.269 170.397 356.787 171.984C358.374 173.503 360.203 174.607 362.273 175.297C364.413 175.918 366.69 176.229 369.105 176.229C375.73 176.229 380.941 174.917 384.736 172.295C388.601 169.604 391.361 166.015 393.018 161.529C394.674 156.975 395.502 151.868 395.502 146.209Z" fill="#BA0000"/>
<rect x="196" y="95" width="27" height="101" fill="#BA0000"/>
<path d="M209 23C226.68 23 241 37.32 241 55C241 72.68 226.68 87 209 87C191.32 87 177 72.68 177 55C177 37.32 191.32 23 209 23ZM213 39C213 36.8 211.2 35 209 35C206.8 35 205 36.8 205 39C205 41.2 206.8 43 209 43C211.2 43 213 41.2 213 39ZM213 75V51H205V75H213Z" fill="#BA0000"/>
<defs>
<linearGradient id="paint0_linear_85_128" x1="211" y1="124" x2="4.83405e-06" y2="124" gradientUnits="userSpaceOnUse">
<stop offset="0.5" stop-color="#BA0000"/>
<stop offset="0.5" stop-color="#540000" stop-opacity="0.9"/>
</linearGradient>
<linearGradient id="paint1_linear_85_128" x1="241" y1="124" x2="313" y2="124" gradientUnits="userSpaceOnUse">
<stop stop-color="#BA0000"/>
</linearGradient>
</defs>
</svg>
